<svg xmlns="http://www.w3.org/2000/svg" viewBox="0 0 1200 750" role="img" aria-label="MOTOR — АВТОСЕРВИС">
<style>:root{--bg:#181227;--light:#f5ecff;--accent:#b58cff;--dark:#38255a;--accent2:#68d8ca}.t{font-family:Arial,Helvetica,sans-serif}</style>
<rect width="1200" height="750" fill="var(--bg)"/>
<rect x="28" y="28" width="1144" height="694" rx="40" fill="none" stroke="var(--light)" opacity=".22"/>
<text class="t" x="70" y="92" fill="var(--accent)" font-size="22" font-weight="700" letter-spacing="4">CASE 39 / АВТОСЕРВИС</text>
<text class="t" x="70" y="180" fill="var(--light)" font-size="104" font-weight="700" letter-spacing="-4">MOTOR</text>
<text class="t" x="72" y="238" fill="var(--light)" opacity=".62" font-size="23">ЛАБОРАТОРИЯ БРЕНДОВ / КОНЦЕПТ 39</text>
<rect x="625" y="155" width="118" height="118" rx="66" fill="var(--light)" opacity="0.3"/><rect x="780" y="155" width="118" height="118" rx="50" fill="var(--light)" opacity="0.5"/><rect x="935" y="155" width="118" height="118" rx="34" fill="var(--light)" opacity="0.7"/><rect x="625" y="310" width="118" height="118" rx="18" fill="var(--light)" opacity="0.3"/><rect x="780" y="310" width="118" height="118" rx="66" fill="var(--light)" opacity="0.5"/><rect x="935" y="310" width="118" height="118" rx="50" fill="var(--light)" opacity="0.7"/><rect x="625" y="465" width="118" height="118" rx="34" fill="var(--light)" opacity="0.3"/><rect x="780" y="465" width="118" height="118" rx="18" fill="var(--light)" opacity="0.5"/><rect x="935" y="465" width="118" height="118" rx="66" fill="var(--light)" opacity="0.7"/>
<path d="M70 670h1060" stroke="var(--accent)" stroke-width="3"/>
<circle cx="268" cy="187" r="38" fill="var(--accent2)" opacity=".85"/>
<text class="t" x="1080" y="700" fill="var(--light)" font-size="20">39/50</text>
</svg>